<?xml version="1.0" standalone="no"?><!DOCTYPE svg PUBLIC "-//W3C//DTD SVG 1.1//EN" "http://www.w3.org/Graphics/SVG/1.1/DTD/svg11.dtd"><svg class="icon" width="200px" height="200.00px" viewBox="0 0 1024 1024" version="1.1" xmlns="http://www.w3.org/2000/svg"><path d="M0 0h1024v1024H0z" fill="#FFFFFF" /><path 
d="M761.6 701.44a21.333333 21.333333 0 0 1 0 30.293333l-29.866667 29.866667a21.333333 21.333333 0 0 1-30.293333 0l-189.354667-189.44-189.44 189.44a21.333333 21.333333 0 0 1-30.293333 0l-29.866667-29.866667a21.333333 21.333333 0 0 1 0-30.293333l189.354667-189.354667L262.4 322.56a21.333333 21.333333 0 0 1 0-30.293333l29.866667-29.866667a21.333333 21.333333 0 0 1 30.293333 0l189.525333 189.44 189.44-189.44a21.333333 21.333333 0 0 1 30.293334 0l29.866666 29.866667a21.333333 21.333333 0 0 1 0 30.293333l-189.525333 189.525333z"  /></svg>