<?xml version="1.0" standalone="no"?><!DOCTYPE svg PUBLIC "-//W3C//DTD SVG 1.1//EN" "http://www.w3.org/Graphics/SVG/1.1/DTD/svg11.dtd"><svg class="icon" width="200px" height="200.00px" viewBox="0 0 1024 1024" version="1.1" xmlns="http://www.w3.org/2000/svg"><path fill="#000000" d="M257.7 652.3h510.6c17.9 0 32.5-14.5 32.5-32.5V415.1c0-143.2-104.6-261.9-241.5-284 2.1-5.5 3.3-11.6 3.3-17.8 0-27.4-22.2-49.6-49.6-49.6s-49.6 22.2-49.6 49.6c0 6.3 1.2 12.3 3.3 17.8-136.9 22.1-241.5 140.9-241.5 284v204.7c0 17.9 14.6 32.5 32.5 32.5zM513 959.6c44.4 0 80.3-36 80.3-80.3H432.7c0 44.4 35.9 80.3 80.3 80.3zM911.7 781L895 747.7c-14.8-29.7-47.7-52.1-74.5-52.1h-615c-26.8 0-59.7 22.4-74.5 52.1L114.3 781c-17.5 35.1-6.6 65.9 25.9 65.9h745.6c32.5 0 43.5-30.8 25.9-65.9z"  /></svg>